# xmcd
#
# Track frame offsets:
#	150
#	19907
#	41559
#	59551
#	71980
#	84245
#	93174
#	108761
#	115947
#	132826
#	143898
#	155096
#	168895
#	177317
#	192940
#
# Disc length: 2854 seconds
#
# Revision: 0
# Processed by: cddbd v1.5.2PL0 Copyright (c) Steve Scherf et al.
# Submitted via: EasyCDDAExtractor 10.2.0.1
#
DISCID=cc0b240f
DTITLE=Various Artist - Airplay Radio Sept. 04
DYEAR=2004
DGENRE=Gospel
TTITLE0=The Galloways - Saving Grace
TTITLE1=The Steels - God's Cemetery
TTITLE2=Signature Sound Quartet - This Could Be The Dawning Of That Day
TTITLE3=Tony Gore - Walk A Little Farther
TTITLE4=The Wilburns - It's Good To Know
TTITLE5=Anchormen - The Fourth Man
TTITLE6=Roarks - The Man In The Mirror
TTITLE7=Brian Elliott - Gloryland Way
TTITLE8=The Dosses - The Wall Of Fame
TTITLE9=The Ellis Family - I'm Gonna Live On
TTITLE10=Cross Bridge Quartet - Count Me In
TTITLE11=Josh Franks - Where We'll Never Die
TTITLE12=New Day Quartet - When Morning Sweeps The Eastern Sky
TTITLE13=New Day Qartet - When Morning Sweeps The Eastern Sky (live)
TTITLE14=Roarks - The Man In The Middle
EXTD=
EXTT0=
EXTT1=
EXTT2=
EXTT3=
EXTT4=
EXTT5=
EXTT6=
EXTT7=
EXTT8=
EXTT9=
EXTT10=
EXTT11=
EXTT12=
EXTT13=
EXTT14=
PLAYORDER=
